<?xml version="1.0" encoding="utf-8"?>
<svg viewBox="0 0 300 300" xmlns="http://www.w3.org/2000/svg" xmlns:bx="https://boxy-svg.com">
  <defs>
    <linearGradient id="color-0" bx:pinned="true">
      <stop style="stop-color: #f9ed69;"/>
    </linearGradient>
    <linearGradient id="color-1" bx:pinned="true">
      <stop style="stop-color: #f08a5d;"/>
    </linearGradient>
    <linearGradient id="color-2" bx:pinned="true">
      <stop style="stop-color: #b83b5e;"/>
    </linearGradient>
    <linearGradient id="color-3" bx:pinned="true">
      <stop style="stop-color: #6a2c70;"/>
    </linearGradient>
    <linearGradient id="color-4" bx:pinned="true">
      <stop style="stop-color: #f9f7f7;"/>
    </linearGradient>
    <linearGradient id="color-5" bx:pinned="true">
      <stop style="stop-color: #dbe2ef;"/>
    </linearGradient>
    <linearGradient id="color-6" bx:pinned="true">
      <stop style="stop-color: #3f72af;"/>
    </linearGradient>
    <linearGradient id="color-7" bx:pinned="true">
      <stop style="stop-color: #112d4e;"/>
    </linearGradient>
  </defs>
  <circle style="fill: url(#color-0);" cx="229.848" cy="184.143" r="10.323"/>
  <circle style="fill: rgb(216, 216, 216);" cx="257.174" cy="221.072" r="117.998"/>
  <circle style="fill: url(#color-0); fill-opacity: 0.65;" cx="242.245" cy="209.091" r="145.633"/>
  <circle style="fill: url(#color-0); opacity: 0.47;" cx="256.898" cy="231.304" r="96.253"/>
  <g transform="matrix(0.1, 0, 0, -0.1, 32.143316, 484.764146)" fill="#444444" stroke="none">
    <path d="M626 3547 c3 -10 9 -15 12 -12 3 3 0 11 -7 18 -10 9 -11 8 -5 -6z"/>
    <path style="fill: rgb(216, 216, 216); stroke: rgb(0, 0, 0);" d="M 2075.366 2477.342 C 2075.366 2477.342 1868.777 2648.747 2010.668 2757.351 C 2152.559 2865.955 2252.707 2758.54 2252.707 2759.224 C 2252.707 2759.908 2286.933 2749.33 2314.796 2669.489 C 2342.659 2589.648 2218.687 2333.82 2216.726 2326.042 L 2183.534 2317.028 L 2137.184 2322.312 L 2103.115 2331.092 L 2055.77 2340.255 L 2061.48 2392.833 L 1969.219 2601.569"/>
    <path d="M 2130 3063 C 2130 3058 2104 3049 2073 3041 C 2003 3025 1937 2974 1905 2911 C 1878 2856 1871 2824 1868 2747 C 1867 2708 1861 2681 1849 2667 C 1832 2646 1832 2644 1850 2625 C 1865 2609 1869 2585 1871 2500 C 1873 2442 1871 2389 1867 2383 C 1861 2374 1866 2370 1880 2370 C 1901 2370 1902 2371 1895 2514 L 1887 2657 L 1982 2659 L 2066.862 2652.89 L 2084 2520 C 2088 2442 2089 2375 2085 2372 C 2081 2368 2034 2363 1979 2362 C 1878 2358 1876 2357 1879 2315 C 1882 2265 1892 2230 1901 2235 C 1906 2239 1910 2236 1910 2230 C 1910 2224 1913 2221 1918 2223 C 1922 2226 2029 2229 2155 2231 C 2353 2234 2385 2232 2382 2220 C 2380 2212 2382 2209 2386 2213 C 2390 2217 2395 2228 2396 2238 C 2398 2247 2404 2256 2409 2258 C 2415 2260 2420 2280 2420 2302 C 2420 2329 2426 2347 2437 2355 C 2453 2367 2453 2371 2440 2395 C 2423 2427 2422 2586 2439 2618 C 2450 2638 2444 2674 2431 2666 C 2428 2664 2427 2686 2428 2716 C 2434 2801 2388 2925 2334 2971 C 2317 2985 2264 3012 2175 3051 C 2159 3058 2142 3066 2138 3068 C 2133 3070 2130 3068 2130 3063 Z M 2191 3015 C 2212 3011 2240 2999 2252 2989 L 2275 2969 L 2243 2985 C 2207 3002 2180 3005 2180 2991 C 2180 2986 2195 2980 2213 2977 C 2265 2969 2277 2965 2293 2952 C 2322 2928 2349 2845 2356 2757 L 2363 2670 L 2326 2670 C 2306 2670 2290 2666 2290 2660 C 2290 2655 2305 2650 2323 2650 L 2355 2650 L 2352 2514 C 2349 2418 2352 2380 2359 2385 C 2366 2389 2370 2439 2370 2521 L 2370 2650 L 2408 2649 C 2428 2648 2436 2645 2425 2643 C 2407 2640 2405 2632 2407 2547 C 2408 2496 2405 2440 2401 2423 C 2392 2392 2393 2390 2417 2390 C 2443 2390 2445 2369 2419 2362 C 2408 2359 2408 2361 2420 2370 C 2431 2379 2419 2380 2365 2375 C 2327 2371 2292 2364 2289 2358 C 2286 2353 2280 2349 2276 2349 C 2256 2352 2227 2348 2237 2343 C 2264 2333 2224 2311 2189 2316 C 2163 2321 2150 2317 2136 2301 C 2118 2281 2118 2281 2171 2282 C 2211 2282 2220 2284 2206 2292 C 2197 2297 2182 2299 2174 2296 C 2166 2293 2160 2295 2160 2300 C 2160 2312 2167 2312 2227 2301 C 2336 2280 2335 2280 2335 2304 C 2335 2317 2330 2327 2323 2327 C 2317 2327 2314 2322 2316 2315 C 2319 2309 2312 2304 2301 2304 C 2286 2304 2284 2307 2292 2317 C 2298 2324 2299 2330 2294 2330 C 2280 2331 2322 2360 2337 2360 C 2346 2360 2350 2344 2350 2308 L 2350 2255 L 2230 2258 L 2110 2261 L 2110 2290 C 2110 2305 2107 2325 2104 2334 C 2099 2346 2110 2350 2159 2356 C 2238 2365 2316.003 2382.775 2238.003 2376.775 L 2100 2368 L 2100 2514 L 2089.862 2651.89 C 2089.862 2651.89 2131.269 2650.137 2151.862 2651.89 C 2297.333 2664.275 2313.511 2653.485 2305.511 2661.485 C 2299.511 2667.485 2169.862 2672.89 2140.862 2670.89 L 2089.862 2666.89 L 2106.996 2800.965 C 2106.996 2907.965 2101 2899 2123 2906 C 2135 2910 2151 2913 2158 2912 C 2164 2910 2170 2916 2170 2925 C 2170 2944 2163 2944 2126 2925 C 2098 2910 2098 2911 2104 2932 C 2107 2945 2110 2961 2110 2968 C 2110 2974 2121 2980 2135 2980 C 2150 2980 2160 2986 2160 2995 C 2160 3007 2155 3008 2133 3000 C 2108 2991 2107 2992 2122 3003 C 2132 3011 2137 3020 2134 3023 C 2131 3026 2132 3035 2136 3042 C 2143 3052 2145 3051 2148 3038 C 2150 3028 2165 3019 2191 3015 Z M 2110 3020 C 2110 3015 2101 3010 2090 3010 C 2038 3010 1959 2948 1925 2881 C 1904 2839 1880.171 2674.36 1898.171 2674.36 C 1905.171 2674.36 1920 2701 1920 2738 C 1920 2814 1953 2881 2025 2949 C 2070 2992 2100 3011 2100 2997 C 2100 2995 2080 2978 2055 2960 C 2030 2941 2000 2910 1989 2890 C 1973 2863 1981 2868 2023 2915 C 2053 2948 2080 2973 2082 2970 C 2084 2967 2084 2900 2082 2820 L 2067.862 2666.89 C 2067.862 2666.89 1974.598 2504.8 1971.005 2431.918 C 1964.301 2295.922 1888 2670 1888 2670 L 1892 2762 C 1898 2896 1938 2963 2040 3009 C 2090 3032 2110 3035 2110 3020 Z M 2381 2855 C 2403 2809 2410 2781 2410 2733 C 2410 2678 2408 2670 2391 2670 C 2375 2670 2372 2681 2368 2758 C 2363 2844 2347 2895 2304 2960 C 2295 2975 2301 2971 2320 2950 C 2338 2931 2365 2888 2381 2855 Z M 1880 2645 C 1880 2636 1874 2633 1864 2637 C 1851 2642 1851 2644 1862 2651 C 1879 2662 1880 2662 1880 2645 Z M 2400 2315 C 2400 2268 2397 2260 2381 2260 C 2365 2260 2363 2267 2364 2308 C 2365 2350 2372 2362 2398 2369 C 2399 2370 2400 2345 2400 2315 Z M 2090 2305 L 2090 2260 L 2026 2260 C 1991 2260 1948 2257 1931 2254 L 1900 2248 L 1900 2299 L 1900 2350 L 1995 2350 L 2090 2350 L 2090 2305 Z"/>
    <path d="M2190 2927 c0 -7 15 -17 32 -22 39 -12 78 -73 78 -122 0 -28 4 -33 23 -33 15 0 18 3 9 9 -7 4 -15 21 -17 37 -2 16 -5 31 -6 34 -1 3 -3 10 -3 15 -4 28 -31 57 -68 75 -49 24 -48 23 -48 7z"/>
    <path d="M2171 2874 c0 -11 3 -14 6 -6 3 7 2 16 -1 19 -3 4 -6 -2 -5 -13z"/>
    <path d="M2201 2829 c-1 -29 5 -40 25 -53 14 -10 33 -15 42 -13 14 4 13 6 -5 12 -13 4 -23 12 -23 17 0 5 -4 6 -10 3 -5 -3 -12 7 -16 22 -10 47 -12 49 -13 12z"/>
    <path d="M2171 2828 c-1 -10 -4 -17 -8 -17 -5 1 -19 0 -33 -1 -18 -2 -14 -5 15 -9 22 -4 41 -6 43 -5 1 0 -2 12 -7 25 -7 17 -10 19 -10 7z"/>
    <path d="M2332 2805 c0 -16 2 -22 5 -12 2 9 2 23 0 30 -3 6 -5 -1 -5 -18z"/>
    <path d="M2293 2715 c29 -43 31 -43 23 -12 -4 17 -2 27 4 27 6 0 9 -3 7 -7 -3 -5 -1 -17 4 -28 6 -17 8 -15 8 11 1 29 -2 32 -33 36 l-34 4 21 -31z"/>
    <path d="M2316 2600 c-3 -21 -22 -70 -41 -107 -18 -37 -37 -82 -40 -99 l-6 -31 50 10 c28 5 51 15 51 21 9 200 9 246 2 246 -5 0 -12 -18 -16 -40z m14 -50 c0 -5 -5 -10 -11 -10 -5 0 -7 5 -4 10 3 6 8 10 11 10 2 0 4 -4 4 -10z m-10 -45 c0 -8 -8 -15 -17 -15 -15 0 -14 -2 3 -15 15 -12 15 -14 2 -9 -12 4 -21 -4 -33 -26 -9 -18 -19 -30 -21 -27 -3 3 6 28 20 56 26 50 46 66 46 36z m-7 -95 c-3 -12 -8 -19 -11 -16 -5 6 5 36 12 36 2 0 2 -9 -1 -20z"/>
    <path d="M 2024 2895 C 1988 2850 1986 2844 1983 2766 L 1968.162 2568.618 L 1998 2715 C 2015 2742 2015 2746 2001 2752 C 1991 2756 1996 2759 2016 2759 C 2033 2760 2192.473 2788.938 2199.473 2797.938 C 2211.473 2812.938 2263.145 2768.46 2221.36 2817.725 C 2205.36 2810.725 2025 2802 2038 2814 C 2048 2825 2068 2890 2061 2890 C 2046 2890 2030 2865 2029 2841 C 2027 2816 2027 2816 2023 2838 C 2020 2853 2028 2874 2045 2896 C 2086 2949 2068 2948 2024 2895 Z M 2025 2780 C 2022 2775 2013 2770 2007 2770 C 2000 2770 2001 2774 2010 2780 C 2029 2792 2033 2792 2025 2780 Z"/>
    <path d="M1963 2785 c0 -38 2 -53 4 -32 2 20 2 52 0 70 -2 17 -4 1 -4 -38z"/>
    <path d="M1937 2786 c-4 -10 -5 -21 -2 -24 9 -9 17 6 13 25 -3 17 -4 17 -11 -1z"/>
    <path d="M1930 2710 c0 -11 2 -20 4 -20 2 0 6 9 9 20 3 11 1 20 -4 20 -5 0 -9 -9 -9 -20z"/>
    <path d="M2392 2765 c0 -16 2 -22 5 -12 2 9 2 23 0 30 -3 6 -5 -1 -5 -18z"/>
    <path d="M1911 2313 c-1 -23 3 -33 14 -33 8 0 15 5 15 10 0 6 -4 10 -9 10 -5 0 -12 10 -14 23 -3 16 -5 13 -6 -10z"/>
    <path d="M1950 2329 c0 -5 -4 -7 -10 -4 -5 3 -10 2 -10 -3 0 -6 7 -12 15 -16 10 -4 15 1 15 14 0 11 -2 20 -5 20 -3 0 -5 -5 -5 -11z"/>
    <path d="M1970 2320 c0 -19 5 -21 50 -19 40 2 50 6 48 18 -2 11 -17 17 -51 19 -42 3 -47 1 -47 -18z"/>
    <path d="M 1921.368 2640.705 C 1910.368 2631.705 1901 2611 1901 2589 C 1903 2559 1903 2558 1907 2583 C 1909 2598 1915 2610 1919 2610 C 1924 2610 1925 2598 1923 2583 C 1912 2514 1908 2370 1917 2370 C 1926 2370 1947 2637 1938 2645 C 1936 2647 1931.368 2647.705 1921.368 2640.705 Z"/>
    <path d="M1945 2509 c-6 -115 -4 -152 9 -138 9 10 17 269 8 269 -5 0 -13 -59 -17 -131z"/>
    <path d="M1981 2545 c-1 -22 -4 -70 -8 -107 l-6 -68 47 0 c39 0 46 3 46 20 0 32 -31 100 -43 93 -6 -3 -7 -1 -3 6 4 6 3 18 -4 26 -6 7 -15 26 -20 42 -8 26 -8 26 -9 -12z m39 -121 c0 -20 -7 -17 -20 6 -9 16 -8 18 5 14 8 -4 15 -12 15 -20z m10 -35 c0 -4 -11 -6 -24 -5 -15 0 -24 7 -23 17 1 12 5 13 24 5 13 -6 23 -14 23 -17z"/>
    <path d="M2480 2310 c0 -11 2 -20 4 -20 2 0 6 9 9 20 3 11 1 20 -4 20 -5 0 -9 -9 -9 -20z"/>
    <path d="M2188 2203 c12 -2 30 -2 40 0 9 3 -1 5 -23 4 -22 0 -30 -2 -17 -4z"/>
    <path d="M2173 2176 c0 -7 7 -12 16 -11 9 2 24 4 34 4 29 1 9 21 -22 21 -17 0 -28 -5 -28 -14z"/>
    <path d="M2107 2169 c7 -7 15 -10 18 -7 3 3 -2 9 -12 12 -14 6 -15 5 -6 -5z"/>
    <path d="M1896 2145 c-3 -9 -5 -29 -5 -43 1 -20 3 -17 9 13 8 43 7 57 -4 30z"/>
    <path d="M2294 2152 c-7 -4 2 -14 25 -25 l36 -19 -24 26 c-14 14 -25 26 -25 26 -1 0 -6 -4 -12 -8z"/>
    <path d="M2160 2140 c44 -7 44 -7 10 -10 -25 -2 -29 -4 -12 -7 12 -2 22 -9 22 -14 0 -5 9 -4 19 3 11 7 17 16 15 20 -3 4 -1 8 5 8 5 0 13 -4 16 -10 3 -5 20 -10 37 -10 21 0 31 -6 35 -20 5 -20 15 -25 26 -14 8 8 -27 35 -66 52 -15 7 -56 11 -90 10 -62 -1 -62 -1 -17 -8z"/>
    <path d="M2385 2121 c-3 -5 -2 -12 3 -15 5 -3 9 1 9 9 0 17 -3 19 -12 6z"/>
    <path d="M2213 2112 c-10 -6 -10 -12 2 -28 11 -13 13 -14 9 -3 -4 14 0 16 35 9 23 -4 41 -3 41 1 0 5 -15 9 -34 9 -19 0 -36 4 -38 10 -1 5 -9 6 -15 2z"/>
    <path d="M2521 2104 c0 -11 3 -14 6 -6 3 7 2 16 -1 19 -3 4 -6 -2 -5 -13z"/>
    <path d="M2140 2080 c0 -5 7 -10 16 -10 8 0 12 5 9 10 -3 6 -10 10 -16 10 -5 0 -9 -4 -9 -10z"/>
    <path d="M2420 2059 c-14 -4 -19 -7 -12 -8 14 -1 18 -206 3 -215 -12 -8 -21 -46 -10 -46 5 0 9 9 9 19 0 11 6 21 13 24 8 3 12 34 12 113 0 76 3 109 12 109 6 0 14 3 17 6 8 8 -13 7 -44 -2z"/>
    <path d="M 1865 2050 C 1838 2046 1823 2042 1833 2042 C 1847 2040 1850 2029 1850 1973 C 1850 1935 1854 1899 1858 1892 C 1864.451 1835.654 1865 1916 1862 1960 L 1858 2040 L 1889 2040 C 1906 2040 1920 2045 1920 2050 C 1920 2056 2130.966 1995.594 2129.966 1994.594 C 2903.006 2103.51 1893 2054 1865 2050 Z"/>
    <path d="M 1860 1838 C 1860 1819 1897 1805 1927 1813 C 1937 1816 2275.185 1704.249 2198.989 1823.838 C 2188.765 1839.884 1877 1827 1871 1838 C 1861 1854 1861 1854 1860 1838 Z"/>
    <path d="M2083 1823 c26 -2 67 -2 90 0 23 2 2 3 -48 3 -49 0 -68 -1 -42 -3z"/>
    <path d="M2188 1803 c7 -3 16 -2 19 1 4 3 -2 6 -13 5 -11 0 -14 -3 -6 -6z"/>
    <path d="M2221 1748 c-1 -30 3 -38 17 -38 11 0 13 3 5 8 -6 4 -13 21 -16 37 -4 27 -4 27 -6 -7z"/>
    <path d="M2406 1765 c4 -8 1 -22 -6 -30 -10 -12 -9 -15 4 -15 11 0 16 9 16 30 0 17 -4 30 -10 30 -5 0 -7 -7 -4 -15z"/>
    <path d="M2385 1265 c0 -247 1 -347 2 -222 2 126 2 328 0 450 -1 122 -2 20 -2 -228z"/>
    <path d="M2253 1630 c0 -25 2 -35 4 -22 2 12 2 32 0 45 -2 12 -4 2 -4 -23z"/>
    <path d="M2251 1564 c0 -11 3 -14 6 -6 3 7 2 16 -1 19 -3 4 -6 -2 -5 -13z"/>
    <path d="M2253 1480 c0 -36 2 -50 4 -32 2 17 2 47 0 65 -2 17 -4 3 -4 -33z"/>
    <path d="M2251 1254 c0 -64 2 -114 5 -112 7 8 10 228 2 228 -3 0 -6 -52 -7 -116z"/>
    <path d="M2251 1104 c0 -11 3 -14 6 -6 3 7 2 16 -1 19 -3 4 -6 -2 -5 -13z"/>
    <path style="fill: rgb(216, 216, 216); stroke: rgb(0, 0, 0);" d="M 2516.089 2623.07"/>
  </g>
</svg>