<?xml version="1.0" standalone="no"?>
<!DOCTYPE svg PUBLIC "-//W3C//DTD SVG 20010904//EN"
 "http://www.w3.org/TR/2001/REC-SVG-20010904/DTD/svg10.dtd">
<svg version="1.0" xmlns="http://www.w3.org/2000/svg"
  viewBox="0 0 720.000000 100"
 >

<g transform="scale(0.100000, -0.100000)"
fill="#000000" stroke="none">
<text font-size="14em" stroke-width="0.07em" transform="scale(2,-2)" dx="1100px" dy="100px"  font-weight="bold">ABOUT</text>
<path d="M5378 4274 c-23 -10 -42 -27 -51 -47 -8 -18 -378 -856 -821 -1864
-567 -1289 -806 -1843 -806 -1867 0 -58 31 -71 170 -71 96 0 121 3 154 20 l39
21 818 1862 c451 1025 819 1875 819 1891 0 54 -28 66 -164 68 -92 2 -130 -1
-158 -13z"/>
<path d="M2280 3806 c0 -5 71 -137 182 -341 146 -266 168 -308 168 -317 0 -6
-26 -8 -68 -5 l-68 6 -21 -57 c-12 -31 -25 -69 -29 -84 -3 -16 -8 -28 -10 -28
-3 0 -19 15 -37 33 -99 98 -519 501 -539 517 l-24 18 -77 -196 c-43 -108 -86
-217 -97 -242 -25 -59 -128 -318 -165 -420 -8 -19 -36 -90 -63 -157 -27 -68
-45 -123 -39 -123 6 0 49 4 96 10 47 5 154 16 236 25 83 9 206 22 275 30 282
31 272 33 247 -28 -32 -75 -30 -84 13 -108 22 -13 37 -26 33 -30 -9 -8 -102
-46 -278 -114 -122 -47 -194 -76 -343 -137 l-82 -35 87 -65 c49 -36 125 -94
170 -129 45 -35 93 -73 107 -83 15 -11 75 -57 134 -103 59 -46 150 -117 202
-156 52 -40 144 -110 204 -156 117 -90 119 -91 132 -16 3 22 15 67 25 100 10
33 20 71 22 85 5 23 19 78 68 255 11 39 21 81 24 94 2 13 11 48 20 77 l15 53
68 -43 c63 -41 69 -43 94 -30 14 7 32 20 40 27 8 8 28 22 46 31 l31 16 10 -37
c5 -21 19 -72 30 -113 12 -42 23 -84 25 -95 9 -43 40 -164 63 -238 12 -43 23
-86 23 -96 0 -14 38 -140 45 -149 4 -5 219 160 595 453 70 55 138 107 150 115
12 8 61 46 108 84 48 38 102 78 119 90 18 11 32 25 30 29 -2 8 -69 37 -207 90
-63 24 -361 141 -447 175 -24 9 -43 21 -43 25 0 4 13 16 30 25 40 23 42 32 20
98 -11 32 -20 59 -20 62 0 5 126 -5 285 -23 66 -8 190 -21 275 -30 85 -9 191
-20 234 -26 44 -5 81 -7 83 -5 4 4 -9 40 -57 156 -11 25 -40 99 -65 165 -25
66 -54 140 -65 165 -10 25 -62 155 -115 290 -53 135 -105 264 -115 288 -11 23
-20 49 -20 57 0 8 -3 15 -6 15 -6 0 -448 -420 -452 -431 -2 -4 -38 -39 -81
-77 l-77 -70 -29 83 -28 84 -73 3 -74 3 56 100 c30 55 76 138 101 185 26 47
55 101 66 120 11 19 40 73 65 120 25 47 51 94 59 105 7 11 13 23 13 27 0 5
-295 8 -655 8 -360 0 -655 -2 -655 -4z m1130 -100 c0 -2 -29 -57 -63 -123 -35
-65 -119 -221 -187 -348 -67 -126 -129 -240 -137 -253 l-14 -22 -37 19 c-36
19 -37 19 -75 -1 -22 -11 -40 -18 -41 -16 -3 3 -159 292 -274 508 -25 47 -65
120 -88 163 l-43 77 480 0 c263 0 479 -2 479 -4z m-1013 -837 l142 -134 0 -47
c1 -26 -3 -50 -9 -53 -10 -6 -57 -11 -345 -40 -88 -9 -196 -20 -240 -25 -44
-6 -134 -14 -200 -20 -66 -6 -137 -13 -158 -17 l-38 -6 15 34 c9 19 53 131
100 249 88 224 191 488 207 529 9 22 20 13 197 -156 103 -99 251 -240 329
-314z m1656 346 c30 -77 103 -261 162 -409 58 -148 104 -270 102 -272 -2 -2
-41 1 -88 6 -46 5 -153 16 -236 25 -662 66 -636 63 -650 82 -7 9 -13 31 -13
49 0 30 30 61 332 348 182 174 332 315 333 314 2 -2 27 -66 58 -143z m-1469
-102 l-71 -4 -13 -42 c-19 -64 -40 -111 -46 -104 -4 3 6 40 21 82 l28 75 76
-2 76 -2 -71 -3z m786 -7 c0 -8 8 -34 18 -58 25 -56 34 -98 24 -98 -5 0 -21
36 -36 80 l-28 79 -66 4 -67 3 78 2 c61 2 77 -1 77 -12z m-57 -228 l49 -43
-26 -51 c-33 -66 -33 -105 1 -174 19 -40 27 -72 27 -115 1 -54 -3 -66 -34
-110 -54 -76 -122 -107 -264 -117 -137 -10 -126 -10 -269 1 -154 11 -215 39
-260 119 -39 70 -40 134 -3 212 38 80 40 108 16 162 -11 26 -25 50 -30 53 -18
11 -10 22 71 89 l80 68 40 -16 c51 -21 123 -20 183 0 45 15 51 15 82 0 48 -23
150 -21 189 3 30 18 30 18 65 -10 19 -16 57 -48 83 -71z m-1033 -433 c-11 -32
-20 -60 -20 -61 0 -2 19 -16 41 -31 23 -15 37 -29 31 -31 -8 -2 -92 45 -92 52
0 5 43 122 47 129 14 23 11 -7 -7 -58z m1327 -4 c13 -35 22 -65 21 -66 -39
-29 -83 -53 -91 -48 -5 3 9 17 31 32 l40 26 -23 63 c-13 35 -18 61 -12 59 6
-2 21 -32 34 -66z m-986 -150 c24 -11 66 -23 92 -26 42 -7 47 -10 41 -28 -4
-12 -20 -71 -36 -132 -16 -60 -38 -144 -50 -185 -11 -41 -28 -106 -38 -145
-35 -132 -70 -260 -82 -301 l-13 -41 -181 141 c-100 78 -263 204 -363 280
-100 77 -178 143 -174 147 5 4 159 68 343 142 184 75 351 142 370 151 44 19
40 19 91 -3z m1071 -137 c200 -80 366 -149 370 -153 4 -3 -51 -51 -123 -106
-284 -218 -428 -330 -511 -396 -48 -38 -89 -65 -92 -61 -2 4 -11 35 -19 67
-16 63 -35 136 -87 325 -60 220 -109 407 -110 421 0 4 26 12 58 18 31 6 68 18
82 26 14 8 35 12 47 10 13 -3 186 -71 385 -151z m-622 -142 c0 -7 -119 -94
-132 -96 -9 -2 -128 77 -128 85 0 15 14 10 67 -26 29 -19 56 -35 60 -35 4 1
33 19 63 40 56 40 70 46 70 32z"/>
<path d="M2777 3574 c-4 -4 -7 -25 -7 -46 l0 -38 50 0 50 0 0 -120 0 -121 63
3 62 3 3 118 3 117 50 0 50 0 -3 43 -3 42 -156 3 c-85 1 -158 -1 -162 -4z"/>
<path d="M1840 2966 c0 -3 -9 -28 -20 -55 l-20 -50 78 -59 c110 -84 220 -162
233 -165 6 -1 19 20 30 47 20 49 18 57 -14 68 -4 2 0 24 10 50 14 40 21 47 46
50 25 3 32 10 48 52 10 28 17 51 16 52 -6 5 -407 15 -407 10z m192 -102 c34
-6 36 -8 26 -28 -6 -11 -12 -22 -13 -24 -4 -4 -85 49 -85 54 0 6 30 5 72 -2z"/>
<path d="M3863 3005 c-53 -23 -65 -52 -61 -152 2 -72 0 -88 -12 -88 -8 0 -21
12 -30 27 -12 23 -13 31 -3 48 11 16 9 27 -9 65 -12 25 -27 45 -34 45 -7 0
-24 -14 -38 -31 -54 -64 -14 -204 70 -244 51 -24 118 -16 153 19 27 27 29 48
18 181 -2 24 2 30 18 30 17 0 20 -7 20 -46 1 -29 9 -58 24 -82 22 -35 25 -37
45 -24 78 51 39 212 -61 253 -40 17 -59 17 -100 -1z"/>
<path d="M2608 2903 c-34 -31 -67 -59 -72 -63 -4 -4 4 -29 20 -55 35 -60 35
-112 0 -185 -51 -108 -25 -218 65 -272 41 -25 65 -30 188 -43 93 -9 152 -11
173 -4 18 5 60 9 93 9 127 1 204 38 251 124 31 57 29 96 -11 191 -31 76 -31
107 0 174 29 63 34 53 -64 134 l-54 44 -51 -19 c-58 -22 -123 -21 -173 4 -29
15 -36 14 -89 -3 -72 -24 -101 -24 -163 0 l-49 18 -64 -54z m362 -273 c0 -165
1 -170 23 -182 21 -12 19 -13 -27 -18 -79 -10 -144 8 -86 23 20 5 20 12 18
139 -3 120 -5 133 -20 130 -10 -2 -18 2 -18 7 0 12 80 70 98 71 9 0 12 -40 12
-170z"/>
<path d="M2405 2078 c-22 -28 -45 -56 -50 -62 -34 -37 -135 -166 -135 -173 0
-10 83 -63 98 -63 6 0 15 6 19 14 9 15 44 59 149 185 l71 85 -46 33 c-25 18
-50 33 -56 33 -5 -1 -28 -24 -50 -52z"/>
<path d="M3368 2083 l-127 -85 27 -34 c15 -19 30 -34 35 -34 4 0 39 21 77 46
58 39 72 45 85 34 8 -7 15 -16 15 -20 0 -4 -27 -25 -60 -46 -33 -22 -60 -41
-60 -44 0 -3 14 -20 30 -38 l30 -33 60 41 c56 38 62 40 77 25 10 -11 12 -19 6
-23 -5 -4 -38 -25 -71 -47 -34 -21 -62 -44 -62 -50 1 -11 45 -65 55 -65 8 0
234 150 240 160 4 6 -221 302 -228 299 -1 0 -59 -39 -129 -86z"/>
<path d="M635 3150 c-659 -401 -599 -345 -600 -560 0 -216 -59 -160 589 -556
600 -367 610 -371 659 -322 32 32 40 94 35 260 -5 194 24 164 -411 413 -281
160 -364 212 -355 221 20 17 694 404 705 404 22 0 53 49 63 99 13 70 13 227
-1 290 -12 59 -45 91 -93 91 -24 0 -171 -85 -591 -340z"/>
<path d="M5918 3331 c-34 -28 -48 -91 -48 -227 0 -122 13 -184 45 -216 13 -13
183 -114 379 -226 196 -112 356 -206 356 -210 0 -4 -163 -99 -362 -212 -207
-118 -370 -217 -381 -232 -14 -19 -22 -55 -30 -142 -13 -147 -1 -255 34 -292
49 -52 48 -53 649 314 504 307 555 341 574 377 19 35 21 57 21 190 0 130 -3
154 -19 182 -26 43 -1098 702 -1154 710 -28 4 -44 0 -64 -16z"/>
</g>

</svg>

