<svg id="svg" xmlns="http://www.w3.org/2000/svg" xmlns:xlink="http://www.w3.org/1999/xlink" width="400" height="284.5833333333333" viewBox="0, 0, 400, 380.5833333333333"><g id="svgg"><path id="path0" d="M299.570 46.642 C 296.403 47.604,297.227 46.088,285.850 71.878 C 280.999 82.876,275.371 95.625,273.345 100.208 C 271.319 104.792,268.257 111.729,266.542 115.625 C 264.827 119.521,260.852 128.521,257.709 135.625 C 254.566 142.729,251.654 149.385,251.239 150.417 C 250.824 151.448,249.364 154.823,247.995 157.917 C 240.772 174.241,223.185 214.373,218.963 224.167 C 217.530 227.490,215.097 233.115,213.556 236.667 C 203.149 260.659,203.162 260.407,212.258 261.094 C 221.751 261.811,225.287 260.315,227.807 254.518 C 228.738 252.377,231.930 245.094,234.902 238.333 C 237.874 231.573,246.808 211.229,254.756 193.125 C 262.705 175.021,269.585 159.388,270.047 158.386 C 270.509 157.383,271.228 155.695,271.646 154.636 C 272.064 153.576,274.508 147.927,277.076 142.083 C 287.386 118.623,290.612 111.251,296.857 96.875 C 300.440 88.625,303.994 80.469,304.755 78.750 C 315.143 55.265,317.325 49.342,316.146 47.821 C 315.057 46.417,303.108 45.567,299.570 46.642 M137.813 72.786 C 130.256 72.884,126.667 73.074,126.667 73.377 C 126.667 73.622,127.301 74.978,128.077 76.391 C 138.182 94.789,145.862 109.276,145.633 109.506 C 145.475 109.663,143.733 109.792,141.762 109.792 L 138.177 109.792 136.654 114.206 L 135.130 118.620 124.127 108.022 C 111.012 95.389,102.044 86.979,101.880 87.160 C 101.752 87.301,87.609 122.726,82.280 136.250 C 78.989 144.605,77.083 149.845,77.083 150.543 C 77.083 150.775,77.906 150.834,79.063 150.685 C 80.151 150.544,87.229 149.760,94.792 148.941 C 127.919 145.355,125.973 145.400,124.750 148.244 C 122.958 152.409,123.043 153.171,125.477 154.782 C 127.712 156.261,129.069 155.556,107.396 164.175 C 96.911 168.344,88.333 171.900,88.333 172.077 C 88.333 172.253,91.568 174.836,95.521 177.815 C 99.474 180.795,105.802 185.632,109.583 188.564 C 119.846 196.520,140.854 212.608,142.356 213.662 C 143.079 214.169,144.051 214.583,144.515 214.583 C 145.378 214.583,145.565 214.227,146.044 211.667 C 146.194 210.865,146.862 208.146,147.529 205.625 C 148.196 203.104,149.874 196.729,151.257 191.458 C 154.645 178.557,155.537 175.233,155.653 175.076 C 155.707 175.003,157.268 175.893,159.121 177.055 C 163.265 179.652,163.389 179.652,167.155 177.086 C 171.070 174.419,170.920 174.370,171.994 178.646 C 173.352 184.050,176.838 197.526,178.111 202.292 C 178.723 204.583,179.618 207.958,180.099 209.792 C 181.083 213.545,181.650 215.000,182.125 215.000 C 182.616 215.000,191.036 208.661,208.125 195.428 C 216.604 188.861,226.337 181.345,229.754 178.724 C 233.171 176.103,236.440 173.563,237.019 173.081 L 238.070 172.203 236.938 171.461 C 236.315 171.053,227.702 167.546,217.799 163.668 C 197.356 155.663,198.522 156.272,200.787 154.773 C 202.820 153.427,202.974 152.340,201.666 148.539 C 201.207 147.205,200.926 146.018,201.042 145.902 C 201.297 145.647,211.062 146.582,228.750 148.554 C 243.627 150.213,249.583 150.687,249.583 150.211 C 249.583 150.031,248.086 146.113,246.255 141.504 C 231.145 103.462,225.000 87.848,225.000 87.495 C 225.000 86.386,219.648 91.238,204.821 105.792 C 195.140 115.294,191.192 118.867,190.827 118.457 C 190.665 118.274,189.904 116.321,189.136 114.116 L 187.740 110.106 183.987 109.823 C 179.669 109.497,179.684 109.504,180.507 108.242 C 180.849 107.719,184.977 100.260,189.681 91.667 C 194.385 83.073,198.581 75.444,199.005 74.714 C 199.429 73.984,199.686 73.301,199.576 73.196 C 199.295 72.930,151.339 72.611,137.813 72.786 M187.964 81.146 C 186.190 84.644,167.527 119.279,167.285 119.520 C 167.173 119.633,166.173 119.299,165.063 118.779 L 163.045 117.834 161.274 118.738 C 158.729 120.036,159.296 120.832,148.741 101.179 C 143.408 91.249,138.492 82.141,137.816 80.938 L 136.587 78.750 162.883 78.750 L 189.179 78.750 187.964 81.146 M155.208 85.750 C 154.019 86.032,153.952 86.164,153.833 88.440 L 153.708 90.833 156.438 90.833 L 159.167 90.833 159.167 97.500 L 159.167 104.167 161.354 104.162 C 162.557 104.160,164.245 104.041,165.104 103.899 L 166.667 103.641 166.667 98.539 C 166.667 90.727,166.622 90.833,169.901 90.833 L 172.615 90.833 172.336 88.459 C 172.182 87.153,171.993 86.021,171.915 85.943 C 171.617 85.645,156.393 85.468,155.208 85.750 M66.435 91.004 C 63.649 92.217,50.252 100.053,34.792 109.511 C 29.750 112.596,24.179 115.983,22.412 117.039 C 13.272 122.500,11.584 123.579,8.151 126.160 C 6.103 127.699,3.853 129.679,3.151 130.560 L 1.875 132.161 1.875 140.560 C 1.875 152.608,-0.611 150.250,35.208 172.172 C 68.283 192.414,69.222 192.835,71.978 188.668 L 73.125 186.935 73.125 177.253 L 73.125 167.571 71.857 165.767 C 70.196 163.404,66.158 160.735,52.083 152.698 C 31.701 141.058,30.367 140.193,31.552 139.374 C 33.538 138.001,66.230 119.327,70.455 117.152 C 75.135 114.743,75.467 94.435,70.876 91.364 C 69.270 90.290,68.263 90.208,66.435 91.004 M228.545 115.002 C 236.043 133.907,239.679 143.381,239.500 143.545 C 239.370 143.665,209.365 140.667,195.735 139.173 C 184.392 137.929,182.987 136.785,186.847 131.936 C 188.548 129.799,221.653 98.180,221.915 98.442 C 221.972 98.500,224.956 105.952,228.545 115.002 M328.537 99.713 C 326.489 101.761,326.083 103.774,326.083 111.875 C 326.083 124.102,324.523 122.410,348.542 136.246 C 359.375 142.487,368.750 148.102,368.750 148.350 C 368.750 148.574,362.487 152.286,350.833 158.969 C 327.143 172.556,327.462 172.313,326.660 177.333 C 324.780 189.100,327.067 199.443,331.347 198.528 C 334.607 197.831,345.306 191.718,369.792 176.558 C 371.854 175.282,376.416 172.487,379.929 170.348 C 398.345 159.135,397.581 160.127,397.412 147.637 C 397.262 136.634,399.041 138.687,378.333 125.629 C 374.781 123.389,370.188 120.486,368.125 119.178 C 363.676 116.357,352.221 109.460,343.667 104.452 C 332.069 97.663,330.941 97.309,328.537 99.713 M107.770 101.329 C 109.340 102.747,116.250 109.269,123.125 115.823 C 130.000 122.376,136.797 128.838,138.229 130.182 L 140.833 132.627 140.833 135.012 C 140.833 136.413,140.618 137.576,140.313 137.830 C 139.842 138.221,120.265 140.418,98.542 142.517 C 93.958 142.960,89.411 143.440,88.438 143.584 C 86.432 143.879,86.427 143.870,87.326 141.757 C 88.078 139.992,102.146 104.270,103.402 100.938 C 104.426 98.222,104.321 98.213,107.770 101.329 M141.086 111.622 C 139.468 111.874,139.462 111.883,138.186 115.571 C 137.483 117.603,136.847 119.084,136.773 118.861 C 136.699 118.638,137.225 116.835,137.942 114.853 L 139.245 111.250 140.977 111.309 L 142.708 111.368 141.086 111.622 M185.313 111.537 C 184.911 111.642,184.255 111.642,183.854 111.537 C 183.453 111.432,183.781 111.347,184.583 111.347 C 185.385 111.347,185.714 111.432,185.313 111.537 M187.083 112.281 C 187.083 112.619,187.653 114.330,188.350 116.084 C 189.047 117.838,189.548 119.480,189.465 119.731 C 189.381 119.983,188.743 118.694,188.047 116.865 C 186.268 112.192,186.125 111.667,186.639 111.667 C 186.883 111.667,187.083 111.943,187.083 112.281 M214.255 117.552 C 211.731 118.801,211.085 120.239,211.002 124.792 C 210.965 126.854,210.911 129.090,210.884 129.760 L 210.833 130.979 209.757 129.968 C 208.781 129.052,208.706 128.759,208.950 126.805 C 209.587 121.693,206.110 118.832,203.838 122.599 C 200.328 128.418,204.794 136.667,211.455 136.667 C 216.889 136.667,218.078 135.125,217.974 128.215 C 217.906 123.685,217.962 123.281,218.637 123.411 C 219.212 123.521,219.440 124.140,219.668 126.206 C 220.484 133.588,225.833 133.768,225.833 126.413 C 225.833 119.623,219.643 114.885,214.255 117.552 M101.086 122.296 C 100.489 123.788,100.000 125.181,100.000 125.390 C 100.000 125.974,114.066 136.577,116.560 137.874 C 118.351 138.805,120.749 133.322,119.134 131.988 C 117.540 130.670,119.285 126.580,121.644 126.109 C 122.970 125.843,124.065 124.139,124.790 121.211 L 125.058 120.131 120.341 119.859 C 117.747 119.709,112.598 119.586,108.898 119.585 L 102.172 119.583 101.086 122.296 M182.040 123.190 C 184.979 125.670,186.249 127.004,186.106 127.461 C 185.992 127.826,185.420 129.250,184.834 130.625 C 183.446 133.886,183.481 135.243,185.054 139.097 C 189.660 150.383,184.369 157.027,169.712 158.360 C 146.223 160.496,135.454 153.605,141.049 140.019 C 142.938 135.433,142.965 133.339,141.181 129.715 L 139.862 127.036 140.762 126.224 C 141.257 125.777,141.476 125.638,141.248 125.914 C 140.592 126.710,140.756 127.791,141.865 129.979 C 143.593 133.390,143.599 134.667,141.913 139.705 C 137.646 152.461,142.951 157.634,160.665 157.990 C 181.774 158.414,188.884 153.184,184.592 140.391 C 182.665 134.650,182.659 134.109,184.473 129.927 C 185.790 126.890,185.853 127.023,181.228 123.021 C 178.656 120.796,177.527 120.067,176.941 120.253 C 176.419 120.419,176.244 120.347,176.431 120.045 C 176.982 119.153,177.805 119.615,182.040 123.190 M165.980 120.669 C 167.335 121.130,168.962 121.291,171.237 121.187 C 173.187 121.099,174.272 121.183,173.897 121.393 C 172.671 122.079,168.189 121.897,165.734 121.061 L 163.342 120.247 159.842 121.165 C 155.909 122.197,154.606 122.254,152.500 121.491 C 151.152 121.003,151.293 120.975,154.375 121.128 C 156.491 121.232,158.469 121.075,159.792 120.698 C 162.620 119.891,163.683 119.886,165.980 120.669 M144.583 123.047 C 144.583 123.119,143.974 123.728,143.229 124.401 L 141.875 125.625 143.099 124.271 C 144.240 123.009,144.583 122.725,144.583 123.047 M113.229 125.679 C 114.221 125.945,114.393 126.498,113.784 127.459 C 113.445 127.994,109.583 126.292,109.583 125.607 C 109.583 125.333,112.124 125.383,113.229 125.679 M164.797 138.554 C 165.078 147.186,165.168 147.987,165.913 148.509 C 166.641 149.019,166.435 149.105,163.882 149.359 C 160.801 149.665,158.206 149.126,159.792 148.510 C 161.141 147.985,161.238 147.545,161.213 142.083 C 161.181 135.301,160.848 133.105,159.866 133.186 C 159.459 133.220,159.196 133.032,159.282 132.770 C 159.445 132.269,163.673 129.167,164.191 129.167 C 164.356 129.167,164.628 133.391,164.797 138.554 M126.236 149.416 L 125.303 152.219 126.298 152.955 C 128.840 154.837,129.057 155.087,127.500 154.345 C 124.554 152.940,124.510 152.814,125.751 149.363 C 127.120 145.555,127.507 145.597,126.236 149.416 M200.233 149.155 C 201.524 152.447,201.471 152.617,198.670 154.110 L 196.875 155.066 198.018 154.013 C 198.647 153.434,199.484 152.781,199.877 152.560 C 200.550 152.184,200.544 152.013,199.782 149.726 C 198.245 145.110,198.513 144.771,200.233 149.155 M145.714 157.451 C 146.811 157.882,148.783 158.457,150.097 158.729 C 153.003 159.330,153.047 159.392,152.322 161.928 C 152.002 163.045,150.496 168.646,148.973 174.375 C 144.087 192.764,141.148 203.529,140.883 204.012 C 140.725 204.300,138.361 202.710,134.792 199.914 C 131.583 197.402,123.521 191.144,116.875 186.009 C 110.229 180.874,103.968 175.953,102.961 175.074 L 101.130 173.477 105.253 171.725 C 117.364 166.580,141.999 156.716,142.797 156.693 C 143.304 156.679,144.617 157.020,145.714 157.451 M202.408 163.996 C 211.969 167.824,221.094 171.547,222.686 172.268 L 225.581 173.579 221.020 177.173 C 197.925 195.373,185.953 204.425,185.534 204.006 C 185.102 203.574,173.750 161.124,173.750 159.941 C 173.750 159.406,174.353 159.101,176.146 158.730 C 177.464 158.457,179.385 157.883,180.417 157.454 C 183.155 156.313,183.417 156.391,202.408 163.996 M187.419 168.315 C 179.175 173.774,179.546 173.319,181.451 175.643 C 183.335 177.942,183.040 177.965,187.407 175.193 C 193.045 171.616,195.049 172.708,189.695 176.441 C 186.199 178.878,186.197 178.884,188.157 181.175 C 189.990 183.316,189.793 183.321,193.216 181.026 C 195.890 179.232,197.708 178.769,197.708 179.880 C 197.708 180.158,196.116 181.471,194.171 182.797 C 190.067 185.594,189.911 185.943,191.792 188.119 C 193.127 189.664,193.253 189.717,194.410 189.218 C 196.049 188.511,206.798 181.150,206.957 180.625 C 207.073 180.243,198.298 168.284,195.554 165.084 L 194.375 163.709 187.419 168.315 M134.808 167.375 C 132.220 170.262,124.206 180.193,123.697 181.142 C 123.058 182.334,123.953 183.415,126.757 184.837 C 129.304 186.128,129.217 186.147,130.800 183.942 C 131.547 182.902,134.391 179.398,137.121 176.154 C 142.886 169.302,142.610 170.037,140.104 168.217 C 136.484 165.589,136.417 165.579,134.808 167.375 M170.417 172.675 C 170.417 172.900,165.063 176.798,163.892 177.424 C 163.009 177.897,157.356 174.786,156.458 173.333 C 156.065 172.697,157.073 173.223,160.519 175.450 C 161.896 176.340,163.232 176.940,163.490 176.784 C 163.748 176.629,165.342 175.601,167.033 174.501 C 170.079 172.518,170.417 172.336,170.417 172.675 " stroke-width="4px"></path>
<text font-size="2.5em" stroke-width="4.5px" dx="80px" dy="340px" font-family= "Trebuchet MS" font-weight="600"  >ABOUT</text>
</g></svg>