<?xml version="1.0" standalone="no"?>
<!DOCTYPE svg PUBLIC "-//W3C//DTD SVG 20010904//EN"
 "http://www.w3.org/TR/2001/REC-SVG-20010904/DTD/svg10.dtd">
<svg version="1.0" xmlns="http://www.w3.org/2000/svg"
 width="450.000000pt" height="437.000000pt" viewBox="0 0 450.000000 437.000000"
 preserveAspectRatio="xMidYMid meet">
<metadata>
Created by potrace 1.10, written by Peter Selinger 2001-2011
</metadata>
<g transform="translate(0.000000,437.000000) scale(0.100000,-0.100000)"
fill="#444444" stroke="none">
<path d="M650 3726 c0 -2 9 -6 20 -9 11 -3 18 -1 14 4 -5 9 -34 13 -34 5z"/>
<path d="M626 3547 c3 -10 9 -15 12 -12 3 3 0 11 -7 18 -10 9 -11 8 -5 -6z"/>
<path d="M1035 3389 c-4 -6 -5 -12 -2 -15 2 -3 7 2 10 11 7 17 1 20 -8 4z"/>
<path fill="yellow" d="M2130 3063 c0 -5 -26 -14 -57 -22 -70 -16 -136 -67 -168 -130 -27
-55 -34 -87 -37 -164 -1 -39 -7 -66 -19 -80 -17 -21 -17 -23 1 -42 15 -16 19
-40 21 -125 2 -58 0 -111 -4 -117 -6 -9 -1 -13 13 -13 21 0 22 1 15 144 l-8
143 95 2 95 2 7 -141 c4 -78 5 -145 1 -148 -4 -4 -51 -9 -106 -10 -101 -4
-103 -5 -100 -47 3 -50 13 -85 22 -80 5 4 9 1 9 -5 0 -6 3 -9 8 -7 4 3 111 6
237 8 198 3 230 1 227 -11 -2 -8 0 -11 4 -7 4 4 9 15 10 25 2 9 8 18 13 20 6
2 11 22 11 44 0 27 6 45 17 53 16 12 16 16 3 40 -17 32 -18 191 -1 223 11 20
5 56 -8 48 -3 -2 -4 20 -3 50 6 85 -40 209 -94 255 -17 14 -70 41 -159 80 -16
7 -33 15 -37 17 -5 2 -8 0 -8 -5z m61 -48 c21 -4 49 -16 61 -26 l23 -20 -32
16 c-36 17 -63 20 -63 6 0 -5 15 -11 33 -14 52 -8 64 -12 80 -25 29 -24 56
-107 63 -195 l7 -87 -37 0 c-20 0 -36 -4 -36 -10 0 -5 15 -10 33 -10 l32 0 -3
-136 c-3 -96 0 -134 7 -129 7 4 11 54 11 136 l0 129 38 -1 c20 -1 28 -4 17 -6
-18 -3 -20 -11 -18 -96 1 -51 -2 -107 -6 -124 -9 -31 -8 -33 16 -33 26 0 28
-21 2 -28 -11 -3 -11 -1 1 8 11 9 -1 10 -55 5 -38 -4 -73 -11 -76 -17 -3 -5
-9 -9 -13 -9 -20 3 -49 -1 -39 -6 27 -10 -13 -32 -48 -27 -26 5 -39 1 -53 -15
-18 -20 -18 -20 35 -19 40 0 49 2 35 10 -9 5 -24 7 -32 4 -8 -3 -14 -1 -14 4
0 12 7 12 67 1 109 -21 108 -21 108 3 0 13 -5 23 -12 23 -6 0 -9 -5 -7 -12 3
-6 -4 -11 -15 -11 -15 0 -17 3 -9 13 6 7 7 13 2 13 -14 1 28 30 43 30 9 0 13
-16 13 -52 l0 -53 -120 3 -120 3 0 29 c0 15 -3 35 -6 44 -5 12 6 16 55 22 79
9 79 22 1 16 l-60 -4 0 146 0 146 62 0 c45 0 59 3 51 11 -6 6 -33 10 -62 8
l-51 -4 0 112 c0 107 1 112 23 119 12 4 28 7 35 6 6 -2 12 4 12 13 0 19 -7 19
-44 0 -28 -15 -28 -14 -22 7 3 13 6 29 6 36 0 6 11 12 25 12 15 0 25 6 25 15
0 12 -5 13 -27 5 -25 -9 -26 -8 -11 3 10 8 15 17 12 20 -3 3 -2 12 2 19 7 10
9 9 12 -4 2 -10 17 -19 43 -23z m-81 5 c0 -5 -9 -10 -20 -10 -52 0 -131 -62
-165 -129 -21 -42 -34 -201 -16 -201 7 0 11 21 11 58 0 76 33 143 105 211 45
43 75 62 75 48 0 -2 -20 -19 -45 -37 -25 -19 -55 -50 -66 -70 -16 -27 -8 -22
34 25 30 33 57 58 59 55 2 -3 2 -70 0 -150 l-4 -145 -95 -3 -95 -2 4 92 c6
134 46 201 148 247 50 23 70 26 70 11z m271 -165 c22 -46 29 -74 29 -122 0
-55 -2 -63 -19 -63 -16 0 -19 11 -23 88 -5 86 -21 137 -64 202 -9 15 -3 11 16
-10 18 -19 45 -62 61 -95z m-501 -210 c0 -9 -6 -12 -16 -8 -13 5 -13 7 -2 14
17 11 18 11 18 -6z m520 -330 c0 -47 -3 -55 -19 -55 -16 0 -18 7 -17 48 1 42
8 54 34 61 1 1 2 -24 2 -54z m-310 -10 l0 -45 -64 0 c-35 0 -78 -3 -95 -6
l-31 -6 0 51 0 51 95 0 95 0 0 -45z"/>
<path d="M2190 2927 c0 -7 15 -17 32 -22 39 -12 78 -73 78 -122 0 -28 4 -33
23 -33 15 0 18 3 9 9 -7 4 -15 21 -17 37 -2 16 -5 31 -6 34 -1 3 -3 10 -3 15
-4 28 -31 57 -68 75 -49 24 -48 23 -48 7z"/>
<path d="M2171 2874 c0 -11 3 -14 6 -6 3 7 2 16 -1 19 -3 4 -6 -2 -5 -13z"/>
<path d="M2201 2829 c-1 -29 5 -40 25 -53 14 -10 33 -15 42 -13 14 4 13 6 -5
12 -13 4 -23 12 -23 17 0 5 -4 6 -10 3 -5 -3 -12 7 -16 22 -10 47 -12 49 -13
12z"/>
<path d="M2171 2828 c-1 -10 -4 -17 -8 -17 -5 1 -19 0 -33 -1 -18 -2 -14 -5
15 -9 22 -4 41 -6 43 -5 1 0 -2 12 -7 25 -7 17 -10 19 -10 7z"/>
<path d="M2332 2805 c0 -16 2 -22 5 -12 2 9 2 23 0 30 -3 6 -5 -1 -5 -18z"/>
<path fill="white" stroke="red" stroke-width="10px" d="M2293 2715 c29 -43 31 -43 23 -12 -4 17 -2 27 4 27 6 0 9 -3 7 -7 -3
-5 -1 -17 4 -28 6 -17 8 -15 8 11 1 29 -2 32 -33 36 l-34 4 21 -31z"/>
<path fill="white" stroke="red" stroke-width="10px" d="M2316 2600 c-3 -21 -22 -70 -41 -107 -18 -37 -37 -82 -40 -99 l-6
-31 50 10 c28 5 51 15 51 21 9 200 9 246 2 246 -5 0 -12 -18 -16 -40z m14 -50
c0 -5 -5 -10 -11 -10 -5 0 -7 5 -4 10 3 6 8 10 11 10 2 0 4 -4 4 -10z m-10
-45 c0 -8 -8 -15 -17 -15 -15 0 -14 -2 3 -15 15 -12 15 -14 2 -9 -12 4 -21 -4
-33 -26 -9 -18 -19 -30 -21 -27 -3 3 6 28 20 56 26 50 46 66 46 36z m-7 -95
c-3 -12 -8 -19 -11 -16 -5 6 5 36 12 36 2 0 2 -9 -1 -20z"/>
<path fill="white" stroke="red" stroke-width="10px" d="M2024 2895 c-36 -45 -38 -51 -41 -129 l-4 -81 19 30 c17 27 17 31 3
37 -10 4 -5 7 15 7 17 1 38 9 45 18 12 15 12 16 -3 11 -16 -7 -33 14 -20 26
10 11 30 76 23 76 -15 0 -31 -25 -32 -49 -2 -25 -2 -25 -6 -3 -3 15 5 36 22
58 41 53 23 52 -21 -1z m1 -115 c-3 -5 -12 -10 -18 -10 -7 0 -6 4 3 10 19 12
23 12 15 0z"/>
<path d="M1963 2785 c0 -38 2 -53 4 -32 2 20 2 52 0 70 -2 17 -4 1 -4 -38z"/>
<path fill="white" stroke="red" stroke-width="10px"  d="M1937 2786 c-4 -10 -5 -21 -2 -24 9 -9 17 6 13 25 -3 17 -4 17 -11
-1z"/>
<path fill="white" stroke="red" stroke-width="10px" d="M1930 2710 c0 -11 2 -20 4 -20 2 0 6 9 9 20 3 11 1 20 -4 20 -5 0 -9
-9 -9 -20z"/>
<path d="M2392 2765 c0 -16 2 -22 5 -12 2 9 2 23 0 30 -3 6 -5 -1 -5 -18z"/>
<path fill="white" stroke="red" stroke-width="10px" d="M1911 2313 c-1 -23 3 -33 14 -33 8 0 15 5 15 10 0 6 -4 10 -9 10 -5
0 -12 10 -14 23 -3 16 -5 13 -6 -10z"/>
<path d="M1950 2329 c0 -5 -4 -7 -10 -4 -5 3 -10 2 -10 -3 0 -6 7 -12 15 -16
10 -4 15 1 15 14 0 11 -2 20 -5 20 -3 0 -5 -5 -5 -11z"/>
<path d="M1970 2320 c0 -19 5 -21 50 -19 40 2 50 6 48 18 -2 11 -17 17 -51 19
-42 3 -47 1 -47 -18z"/>
<path d="M3100 2781 c0 -6 4 -13 10 -16 6 -3 7 1 4 9 -7 18 -14 21 -14 7z"/>
<path d="M1599 2639 c-7 -14 -8 -24 -1 -31 12 -12 32 -2 32 15 0 7 -4 6 -10
-3 -14 -22 -23 -5 -10 19 6 12 8 21 6 21 -3 0 -10 -9 -17 -21z"/>
<path d="M1917 2636 c-11 -9 -16 -25 -16 -47 2 -30 2 -31 6 -6 2 15 8 27 12
27 5 0 6 -12 4 -27 -11 -69 -15 -213 -6 -213 9 0 30 267 21 275 -2 2 -11 -2
-21 -9z"/>
<path  d="M1945 2509 c-6 -115 -4 -152 9 -138 9 10 17 269 8 269 -5 0 -13 -59
-17 -131z"/>
<path  d="M1020 2626 c0 -1 10 -14 23 -28 12 -13 33 -38 46 -54 l23 -29 -19 31
c-32 54 -73 99 -73 80z"/>
<path  d="M1271 2606 c7 -15 15 -23 17 -16 3 7 -3 19 -13 28 -15 16 -16 15 -4
-12z"/>
<path fill="white" stroke="red" stroke-width="10px" d="M1981 2545 c-1 -22 -4 -70 -8 -107 l-6 -68 47 0 c39 0 46 3 46 20 0
32 -31 100 -43 93 -6 -3 -7 -1 -3 6 4 6 3 18 -4 26 -6 7 -15 26 -20 42 -8 26
-8 26 -9 -12z m39 -121 c0 -20 -7 -17 -20 6 -9 16 -8 18 5 14 8 -4 15 -12 15
-20z m10 -35 c0 -4 -11 -6 -24 -5 -15 0 -24 7 -23 17 1 12 5 13 24 5 13 -6 23
-14 23 -17z"/>
<path fill="white" stroke="red" stroke-width="10px" d="M1327 2546 c20 -26 27 -28 17 -3 -3 8 -12 18 -20 21 -11 4 -10 0 3
-18z"/>
<path d="M1291 2543 c-1 -12 4 -25 9 -28 12 -7 12 2 0 30 -8 19 -9 19 -9 -2z"/>
<path d="M1261 2514 c0 -11 3 -14 6 -6 3 7 2 16 -1 19 -3 4 -6 -2 -5 -13z"/>
<path d="M1127 2509 c7 -7 15 -10 18 -7 3 3 -2 9 -12 12 -14 6 -15 5 -6 -5z"/>
<path d="M997 2493 c3 -7 6 -13 8 -13 2 0 5 6 8 13 3 8 -1 14 -8 14 -7 0 -11
-6 -8 -14z"/>
<path d="M1040 2510 c-8 -26 -7 -41 2 -32 6 6 8 16 5 24 -3 7 -6 11 -7 8z"/>
<path d="M1300 2486 c0 -8 4 -17 9 -20 5 -4 7 3 4 14 -6 23 -13 26 -13 6z"/>
<path d="M2480 2310 c0 -11 2 -20 4 -20 2 0 6 9 9 20 3 11 1 20 -4 20 -5 0 -9
-9 -9 -20z"/>
<path d="M3065 2319 c-4 -6 -5 -12 -2 -15 2 -3 7 2 10 11 7 17 1 20 -8 4z"/>
<path d="M1310 2300 c0 -5 5 -10 11 -10 5 0 7 5 4 10 -3 6 -8 10 -11 10 -2 0
-4 -4 -4 -10z"/>
<path d="M2188 2203 c12 -2 30 -2 40 0 9 3 -1 5 -23 4 -22 0 -30 -2 -17 -4z"/>
<path d="M2173 2176 c0 -7 7 -12 16 -11 9 2 24 4 34 4 29 1 9 21 -22 21 -17 0
-28 -5 -28 -14z"/>
<path fill="yellow" d="M2107 2169 c7 -7 15 -10 18 -7 3 3 -2 9 -12 12 -14 6 -15 5 -6 -5z"/>
<path fill="yellow" d="M1896 2145 c-3 -9 -5 -29 -5 -43 1 -20 3 -17 9 13 8 43 7 57 -4 30z"/>
<path fill="yellow" d="M2294 2152 c-7 -4 2 -14 25 -25 l36 -19 -24 26 c-14 14 -25 26 -25
26 -1 0 -6 -4 -12 -8z"/>
<path fill="yellow" d="M2160 2140 c44 -7 44 -7 10 -10 -25 -2 -29 -4 -12 -7 12 -2 22 -9 22
-14 0 -5 9 -4 19 3 11 7 17 16 15 20 -3 4 -1 8 5 8 5 0 13 -4 16 -10 3 -5 20
-10 37 -10 21 0 31 -6 35 -20 5 -20 15 -25 26 -14 8 8 -27 35 -66 52 -15 7
-56 11 -90 10 -62 -1 -62 -1 -17 -8z"/>
<path fill="yellow" d="M2385 2121 c-3 -5 -2 -12 3 -15 5 -3 9 1 9 9 0 17 -3 19 -12 6z"/>
<path fill="yellow" d="M2213 2112 c-10 -6 -10 -12 2 -28 11 -13 13 -14 9 -3 -4 14 0 16 35
9 23 -4 41 -3 41 1 0 5 -15 9 -34 9 -19 0 -36 4 -38 10 -1 5 -9 6 -15 2z"/>
<path fill="yellow" d="M2521 2104 c0 -11 3 -14 6 -6 3 7 2 16 -1 19 -3 4 -6 -2 -5 -13z"/>
<path fill="yellow" d="M2140 2080 c0 -5 7 -10 16 -10 8 0 12 5 9 10 -3 6 -10 10 -16 10 -5
0 -9 -4 -9 -10z"/>
<path fill="yellow" d="M3646 2068 c-9 -10 -12 -18 -7 -18 5 0 19 8 31 18 17 14 19 19 7 19
-8 0 -22 -9 -31 -19z"/>
<path d="M3810 2080 c0 -5 5 -10 11 -10 5 0 7 5 4 10 -3 6 -8 10 -11 10 -2 0
-4 -4 -4 -10z"/>
<path d="M570 2065 c0 -2 7 -8 15 -15 12 -10 15 -10 15 2 0 8 -7 15 -15 15 -8
0 -15 -1 -15 -2z"/>
<path d="M1330 2061 c0 -6 4 -13 10 -16 6 -3 7 1 4 9 -7 18 -14 21 -14 7z"/>
<path d="M2420 2059 c-14 -4 -19 -7 -12 -8 14 -1 18 -206 3 -215 -12 -8 -21
-46 -10 -46 5 0 9 9 9 19 0 11 6 21 13 24 8 3 12 34 12 113 0 76 3 109 12 109
6 0 14 3 17 6 8 8 -13 7 -44 -2z"/>
<path d="M1865 2050 c-27 -4 -42 -8 -32 -8 14 -2 17 -13 17 -69 0 -38 4 -74 8
-81 5 -7 7 24 4 68 l-4 80 31 0 c17 0 31 5 31 10 0 6 -1 9 -2 8 -2 0 -25 -4
-53 -8z"/>
<path d="M3247 1963 c-10 -9 -9 -23 1 -23 5 0 9 7 9 15 0 17 -1 18 -10 8z"/>
<path d="M676 1905 c-3 -9 -6 -22 -5 -28 0 -7 5 -1 10 12 5 13 8 26 5 28 -2 2
-6 -3 -10 -12z"/>
<path d="M1860 1838 c0 -19 37 -33 67 -25 10 3 4 5 -14 6 -19 1 -36 8 -42 19
-10 16 -10 16 -11 0z"/>
<path d="M2083 1823 c26 -2 67 -2 90 0 23 2 2 3 -48 3 -49 0 -68 -1 -42 -3z"/>
<path d="M2188 1803 c7 -3 16 -2 19 1 4 3 -2 6 -13 5 -11 0 -14 -3 -6 -6z"/>
<path d="M2221 1748 c-1 -30 3 -38 17 -38 11 0 13 3 5 8 -6 4 -13 21 -16 37
-4 27 -4 27 -6 -7z"/>
<path d="M2406 1765 c4 -8 1 -22 -6 -30 -10 -12 -9 -15 4 -15 11 0 16 9 16 30
0 17 -4 30 -10 30 -5 0 -7 -7 -4 -15z"/>
<path d="M3565 1730 c-3 -5 -1 -10 4 -10 6 0 11 5 11 10 0 6 -2 10 -4 10 -3 0
-8 -4 -11 -10z"/>
<path d="M2385 1265 c0 -247 1 -347 2 -222 2 126 2 328 0 450 -1 122 -2 20 -2
-228z"/>
<path d="M741 1664 c0 -11 3 -14 6 -6 3 7 2 16 -1 19 -3 4 -6 -2 -5 -13z"/>
<path d="M2253 1630 c0 -25 2 -35 4 -22 2 12 2 32 0 45 -2 12 -4 2 -4 -23z"/>
<path d="M2921 1624 c0 -11 3 -14 6 -6 3 7 2 16 -1 19 -3 4 -6 -2 -5 -13z"/>
<path d="M957 1595 c3 -8 9 -12 14 -9 12 7 11 11 -5 17 -10 4 -13 1 -9 -8z"/>
<path d="M1456 1596 c10 -8 21 -12 24 -10 5 6 -21 24 -34 24 -6 0 -1 -6 10
-14z"/>
<path d="M2552 1595 c4 -4 3 -14 -3 -22 -7 -8 -8 -13 -1 -13 15 0 23 28 9 36
-7 4 -9 4 -5 -1z"/>
<path d="M3249 1573 c-13 -16 -12 -17 4 -4 9 7 17 15 17 17 0 8 -8 3 -21 -13z"/>
<path d="M2251 1564 c0 -11 3 -14 6 -6 3 7 2 16 -1 19 -3 4 -6 -2 -5 -13z"/>
<path d="M2922 1555 c0 -16 2 -22 5 -12 2 9 2 23 0 30 -3 6 -5 -1 -5 -18z"/>
<path d="M3154 1558 l-19 -23 25 20 c14 11 27 21 29 22 2 2 0 3 -6 3 -5 0 -18
-10 -29 -22z"/>
<path d="M3279 1553 c-13 -16 -12 -17 4 -4 9 7 17 15 17 17 0 8 -8 3 -21 -13z"/>
<path d="M2253 1480 c0 -36 2 -50 4 -32 2 17 2 47 0 65 -2 17 -4 3 -4 -33z"/>
<path d="M1848 1523 c7 -3 16 -2 19 1 4 3 -2 6 -13 5 -11 0 -14 -3 -6 -6z"/>
<path d="M3265 1509 c-11 -16 -1 -19 13 -3 7 8 8 14 3 14 -5 0 -13 -5 -16 -11z"/>
<path d="M2608 1453 c7 -3 16 -2 19 1 4 3 -2 6 -13 5 -11 0 -14 -3 -6 -6z"/>
<path d="M3100 1429 c0 -5 5 -7 10 -4 6 3 10 8 10 11 0 2 -4 4 -10 4 -5 0 -10
-5 -10 -11z"/>
<path d="M3101 1364 c0 -11 3 -14 6 -6 3 7 2 16 -1 19 -3 4 -6 -2 -5 -13z"/>
<path d="M2251 1254 c0 -64 2 -114 5 -112 7 8 10 228 2 228 -3 0 -6 -52 -7
-116z"/>
<path d="M1502 1244 c-7 -8 -8 -14 -3 -14 10 0 25 19 20 25 -2 1 -10 -3 -17
-11z"/>
<path d="M3191 1134 c0 -11 3 -14 6 -6 3 7 2 16 -1 19 -3 4 -6 -2 -5 -13z"/>
<path d="M1560 1126 c0 -2 9 -6 20 -9 11 -3 18 -1 14 4 -5 9 -34 13 -34 5z"/>
<path d="M2940 1120 c-9 -6 -10 -10 -3 -10 6 0 15 5 18 10 8 12 4 12 -15 0z"/>
<path d="M1750 1116 c0 -2 9 -6 20 -9 11 -3 18 -1 14 4 -5 9 -34 13 -34 5z"/>
<path d="M2251 1104 c0 -11 3 -14 6 -6 3 7 2 16 -1 19 -3 4 -6 -2 -5 -13z"/>
<path d="M2470 1116 c0 -2 8 -10 18 -17 15 -13 16 -12 3 4 -13 16 -21 21 -21
13z"/>
<path d="M3037 1093 c-4 -3 -7 -11 -7 -17 0 -7 3 -7 8 0 4 7 16 14 27 17 19 5
19 5 -1 6 -11 0 -24 -2 -27 -6z"/>
<path d="M2930 1080 c-9 -6 -10 -10 -3 -10 6 0 15 5 18 10 8 12 4 12 -15 0z"/>
<path d="M3069 1063 c-13 -16 -12 -17 4 -4 16 13 21 21 13 21 -2 0 -10 -8 -17
-17z"/>
<path d="M2966 1043 c-6 -14 -5 -15 5 -6 7 7 10 15 7 18 -3 3 -9 -2 -12 -12z"/>
<path d="M3432 866 c-18 -24 -32 -48 -32 -52 0 -8 45 50 61 79 17 31 3 18 -29
-27z"/>
<path d="M1117 809 c7 -7 15 -10 18 -7 3 3 -2 9 -12 12 -14 6 -15 5 -6 -5z"/>
<path d="M2255 810 c3 -5 8 -10 11 -10 2 0 4 5 4 10 0 6 -5 10 -11 10 -5 0 -7
-4 -4 -10z"/>
<path d="M3498 740 c-10 -11 -14 -21 -10 -24 4 -2 15 7 25 20 21 28 10 31 -15
4z"/>
<path d="M3533 724 c-12 -26 -12 -26 7 -9 11 10 17 22 14 26 -7 12 -7 12 -21
-17z"/>
<path d="M3270 646 c0 -2 7 -7 16 -10 8 -3 12 -2 9 4 -6 10 -25 14 -25 6z"/>
<path d="M1660 616 c7 -7 13 -7 20 0 6 6 3 10 -10 10 -13 0 -16 -4 -10 -10z"/>
<path d="M3025 610 c-3 -6 1 -7 9 -4 18 7 21 14 7 14 -6 0 -13 -4 -16 -10z"/>
<path d="M2441 591 c-8 -5 -9 -11 -3 -15 5 -3 12 1 16 9 6 17 6 18 -13 6z"/>
</g>
</svg>
